<!--?xml version="1.0" encoding="utf-8"?-->
<!-- Generator: Adobe Illustrator 20.1.0, SVG Export Plug-In . SVG Version: 6.00 Build 0)  -->
<svg version="1.1" id="Layer_1" xmlns="http://www.w3.org/2000/svg" xmlns:xlink="http://www.w3.org/1999/xlink" x="0px" y="0px" viewBox="0 0 443 259.8" style="" xml:space="preserve">
<style type="text/css">
	.st0{fill:none;stroke:#383F26;stroke-width:2.5;stroke-miterlimit:10;}
</style>
<path class="st0 LcikokgC_0" d="M211.1,108.8c-10,0-18.1-8.1-18.1-18.1s8.1-18.1,18.1-18.1"></path>
<path class="st0 LcikokgC_1" d="M213.4,36.3c10,0,18.1,8.1,18.1,18.1s-8.1,18.1-18.1,18.1"></path>
<path class="st0 LcikokgC_2" d="M203.9,181.4c-10,0-18.1-8.1-18.1-18.1s8.1-18.1,18.1-18.1"></path>
<path class="st0 LcikokgC_3" d="M224.9,227.2L124.8,227.2"></path>
<path class="st0 LcikokgC_4" d="M73.6,0c-10,0-18.1,8.1-18.1,18.1s8.1,18.1,18.1,18.1h151.7H225c10,0,18.1,8.1,18.1,18.1S235,72.5,225,72.5h0.3
	h-16"></path>
<path class="st0 LcikokgC_5" d="M443.4,253.9H307.2h0c-10,0-18.1-8.1-18.1-18.1s8.1-18.1,18.1-18.1c0,0,74.9,0,74.9,0c10,0,18.1-8.1,18.1-18.1
	s-8.1-18.1-18.1-18.1"></path>
<path class="st0 LcikokgC_6" d="M217.3,108.6h80.8h-1.2c10,0,18.1,8.1,18.1,18.1s-8.1,18.1-18.1,18.1l-107.2,0.3c-10,0-18.1,8.1-18.1,18.1
	s8.1,18.1,18.1,18.1c0,0,184,0,184,0"></path>
<path class="st0 LcikokgC_7" d="M40.9,154.6c-10,0-18.1-8.1-18.1-18.1s8.1-18.1,18.1-18.1"></path>
<path class="st0 LcikokgC_8" d="M101.6,118.4H26.8c-10,0-18.1,8.1-18.1,18.1s8.1,18.1,18.1,18.1c0,0,88.7,0,88.7,0h0.1c10,0,18.1,8.1,18.1,18.1
	s-8.1,18.1-18.1,18.1h-0.1c-10,0-18.1,8.1-18.1,18.1c0,10,8.1,18.1,18.1,18.1"></path>
<style>.LcikokgC_0{stroke-dasharray:57 59;stroke-dashoffset:58;animation:LcikokgC_draw 933ms ease 0ms forwards;}.LcikokgC_1{stroke-dasharray:57 59;stroke-dashoffset:58;animation:LcikokgC_draw 933ms ease 58ms forwards;}.LcikokgC_2{stroke-dasharray:57 59;stroke-dashoffset:58;animation:LcikokgC_draw 933ms ease 116ms forwards;}.LcikokgC_3{stroke-dasharray:101 103;stroke-dashoffset:102;animation:LcikokgC_draw 933ms ease 175ms forwards;}.LcikokgC_4{stroke-dasharray:283 285;stroke-dashoffset:284;animation:LcikokgC_draw 933ms ease 233ms forwards;}.LcikokgC_5{stroke-dasharray:325 327;stroke-dashoffset:326;animation:LcikokgC_draw 933ms ease 291ms forwards;}.LcikokgC_6{stroke-dasharray:487 489;stroke-dashoffset:488;animation:LcikokgC_draw 933ms ease 350ms forwards;}.LcikokgC_7{stroke-dasharray:57 59;stroke-dashoffset:58;animation:LcikokgC_draw 933ms ease 408ms forwards;}.LcikokgC_8{stroke-dasharray:335 337;stroke-dashoffset:336;animation:LcikokgC_draw 933ms ease 466ms forwards;}@keyframes LcikokgC_draw{100%{stroke-dashoffset:0;}}@keyframes LcikokgC_fade{0%{stroke-opacity:1;}92.85714285714286%{stroke-opacity:1;}100%{stroke-opacity:0;}}</style></svg>
