<svg xmlns="http://www.w3.org/2000/svg" width="224.38" height="224.31" viewBox="0 0 224.38 224.31">
  <linearGradient id="a" gradientUnits="userSpaceOnUse" x1="332.254" y1="413.476" x2="332.254" y2="413.476" gradientTransform="translate(-187.04 -220.8) scale(.7692)">
    <stop offset="0" stop-color="#CEA450"/>
    <stop offset=".349" stop-color="#D2A956"/>
    <stop offset=".766" stop-color="#DCB564"/>
    <stop offset="1" stop-color="#E3BE6F"/>
  </linearGradient>
  <path fill="url(#a)" d="M68.54 97.23c0 .08 0 .08 0 0 0 .08 0 .08 0 0z"/>
  <linearGradient id="b" gradientUnits="userSpaceOnUse" x1="265.701" y1="427.361" x2="438.554" y2="427.361" gradientTransform="translate(-187.04 -220.8) scale(.7692)">
    <stop offset="0" stop-color="#CEA450"/>
    <stop offset=".349" stop-color="#D2A956"/>
    <stop offset=".766" stop-color="#DCB564"/>
    <stop offset="1" stop-color="#E3BE6F"/>
  </linearGradient>
  <path fill="url(#b)" d="M146.38 78.69c-5.38 1.69-10.69 3.31-16.08 5-8.08 2.62-16 5.85-23.31 10.23-2.62 1.62-5.23 2.69-8.38 2.77 1.38-2 2.46-4.38 4.23-5.85 4.62-3.92 8.62-8.31 11.46-13.77.69-1.38 1-2.92 1.62-4.31.31-.92.69-1.77 1.15-2.62 1.08-1.92 2.15-3.77 3.23-5.62-.23-.15-.46-.31-.62-.54-.92.69-1.92 1.46-2.85 2.15-.54.38-1.23.69-1.77 1.23-1.62 1.54-3.15 3.08-4.77 4.69-2.77 2.85-6 5.23-8 8.77-.85 1.54-2.38 2.85-3.77 4.08-1.15.92-1.46 1.85-.69 3.15-.54.15-1.23.15-1.38.46-1 1.46-1.92 3-2.69 4.62-.31.62-.38 1.54-.23 2.23.46 2.15.54 2.15-1.69 2.62-4.46.92-8.85 1.85-13.23 2.85-2.31.54-4.54 1.38-7.15 2.23.31-.54.31-.69.46-.85 1.85-1.69 3.85-3.31 4.15-6.08 0-.38.54-.69.69-1 .31-.62.62-1.23.85-1.92.54-1.23 1.08-2.54 1.54-3.69 0 0-.31.08-.69.15-.15-3.62-.31-7.15-.54-10.69-.08-.77-.54-1.85-1.15-2.08-1.15-.62-1.77-1.23-1.62-2.62.08-.69-.23-1.38-.38-2.08-.69-2.92-1.69-5.85-1.92-8.92 0-.31-.15-.54-.38-1.38-.08.92-.08 1.38-.15 1.77-2 8.85-2.31 17.85-2.62 26.85-.08 2.31.77 4.77-1.15 6.77.85-.15 1.23.31 1.31 1.15.08 1 0 2.08.23 3.08.31 1.69-.46 2.38-1.85 3-3.62 1.46-7.31 3.38-10.85 5-.54.23-1.69.54-2.62.92l.23-.23c3.85-3.92 8.15-7.46 12.23-11.15.46-.46.85-1.08 1.23-1.62-.23.08-.54.08-.77.23-2.92 2.38-5.85 4.77-8.62 7.31-7.31 6.46-13.08 14.54-21.62 20.31 5-11.38 10.38-22.15 18.46-31.46-.54 0-1 .15-1.23.38-1.31 1.54-2.85 3-3.85 4.77-4.23 7.46-8.23 15-12.31 22.62-1.54 2.92-2.77 6.08-4.38 8.92-2.54 4.23-5.23 8.38-8 12.46-1.54 2.38-3.31 4.62-4.92 6.85-.85 1.15-2.46.85-3.38 1-1 .15-.38 2.23.77 3 .62.46 2.46-.62 3.54-1.31.77-.54 1.38-1.54 1.92-2.38 3.15-5.08 6.31-10.15 9.46-15.15.77-1.23 2-2.23 2.62-3.54.69-1.38 1.46-2.08 2.92-1.77.77.15 1.46.62 2.23.54 3.85-.31 7.62-.69 11.46-1.23 4.77-.69 9.54-1.69 14.38-2.46 2.46-.46 5-.85 7.15-1.23.77-2.31 2.62-.85 3.77-1.54-2.54-.31-5.08-.38-7.62-.46-5.15-.08-10.23-.08-15.23-1.54-2-.62-4.15-.85-6.23-1.08-1.15-.15-2.31.15-3.46.23-.08-.15-.15-.38-.31-.54 1-.77 2-1.46 3-2.23.46-.31 1.23-.62 1.31-1.08.54-2.08 1.85-3.54 3.23-4.92.92-.31 3.62-1.08 4-1.23 4.08-1.77 8.15-3.54 12.23-5.31l2.46.69c.46.38 1.62 1 2 1.23.92.62 2.15 1.08 2.85 1.85 3.54 4.08 6.92 8.31 10.46 12.38 2.23 2.62 4.62 5 6.92 7.54l.15-.15c-.15-.31-.31-.62-.46-.85-2.23-3.85-4.38-7.62-6.69-11.38-.38-.62-.85-1.08-1.23-1.62-.23-.31-.62-.69-.62-1 0-1-.15-1.77-1-2.46-.46-.38-.38-1.31-.62-1.92-2.54-3.46-6.62-5.85-11.62-3.54l-2.38-.69c1.62-.69 3.15-1.38 4.77-2 1.46-.62 3.15-1.15 4.62-.92 2.08.31 4 1.38 6.08 1.92 2.31.62 4.69 1.08 7.08 1.38 1.23.15 2.38.08 3 1.38.08.23.62.46.85.38 1.69-.38 3.15 1.92 5 .54.08-.08.62.54.92.69.62.31 1.31.69 2 .85.62.15 1.31.15 1.92.31 4 1 8 1.92 11.92 2.92 5.23 1.38 10.38 2.77 15.62 4.15 3.23.85 6.54 1.69 9.77 2.62-.38-.62-.85-1-1.38-1.23-1.46-.69-2.92-1.15-4.31-1.92-2.38-1.23-4.62-2.62-7-3.92-.92-.46-1.85-1-2.77-1.31-3.69-1.31-7.31-2.69-10.23-5.46-.69.08-1.31 0-1.92-.23-1.62-.69-3.15-1.62-4.77-2.23-1.92-.69-3.92-1.08-5.92-1.62.54-.69 1.08-1.08 1.62-1.23 1.85-.69 4.08-.92 5.54-2.08 1.77-1.46 3.69-1 5.54-1.31.54-.08 1.15.62 2.08 1.15.15-.15.69-.54 1.38-1.08-.46-.23-.62-.38-.85-.46-.46-.23-.92-.46-1.38-.77.46-.31.85-.77 1.38-1 1.85-.92 3.77-1.69 5.69-2.69 7.62-3.85 15.23-7.62 22.85-11.46.23-.08.38-.23.54-.38.46-.46.92-1 1.46-1.62-1.07-.59-2.45-.82-3.92-.36zm-46.76 22.23c-.15.31-.77.46-1.08.46-2.77-.54-5.62-1.23-8.38-1.85 0-.31.08-.54.08-.85 1.92-.08 3.85.08 5.69-.15 1.92-.31 3.77-.92 5.62-1.46.08.15.08.31.15.46-.7 1.16-1.32 2.32-2.08 3.39z"/>
  <linearGradient id="c" gradientUnits="userSpaceOnUse" x1="332.154" y1="413.538" x2="332.154" y2="413.538" gradientTransform="translate(-187.04 -220.8) scale(.7692)">
    <stop offset="0" stop-color="#CEA450"/>
    <stop offset=".349" stop-color="#D2A956"/>
    <stop offset=".766" stop-color="#DCB564"/>
    <stop offset="1" stop-color="#E3BE6F"/>
  </linearGradient>
  <path fill="url(#c)" d="M68.46 97.31z"/>
  <g fill="#E9E9DB">
    <path d="M112.23 224.31C50.38 224.31 0 174 0 112.15S50.38 0 112.23 0s112.15 50.31 112.15 112.23-50.3 112.08-112.15 112.08zm0-222.39C51.46 1.92 1.92 51.38 1.92 112.15s49.46 110.23 110.31 110.23c60.77 0 110.23-49.46 110.23-110.23C222.54 51.38 173 1.92 112.23 1.92z"/>
    <path d="M112.23 8.54C55.15 8.54 8.69 55.08 8.69 112.15s46.46 103.54 103.62 103.54c57.08 0 103.54-46.46 103.54-103.54-.08-57.07-46.54-103.61-103.62-103.61zm0 1.92c56.08 0 101.62 45.62 101.62 101.69 0 5.62-.46 11.08-1.31 16.38H11.92c-.85-5.38-1.31-10.85-1.31-16.38-.07-56.07 45.54-101.69 101.62-101.69zM44.23 162v13.08H32.46c-10.08-12.77-17.15-28-20.23-44.62h16.62v31.23l15.38.31zm19.08-15.38v28.46H46.54v-15.39l-15.38-.23v-29h14v16.15h18.15zm48 0v12.31h-14v-12.31h14zm-14-2.31v-13.85h14v13.85h-14zm14 16.92v13.85H80.38v-28.46H95v14.62h16.31zM95 190.46v13.85H80.38v-26.92h30.92v13.08H95zm16.31 2.31v11.54h-14v-11.54h14zM95 144.31H78.08v15.38H65.15v-15h-18v-14.23H95v13.85zM78.08 162v28.46H65.15V162h12.93zm-31.54 15.38h16.77v23.85c-6-3.31-11.54-7.15-16.77-11.54v-12.31zm18.61 15.39h12.92v13.85H95v5.69c-10.62-1.85-20.62-5.23-29.85-10.08v-9.46zm32.16 13.85h14v7.15c-4.77-.08-9.38-.38-14-1.08v-6.07zm30-60v12.31h-14.08v-12.31h14.08zm-14.08-2.31v-13.85h14.08v13.85h-14.08zm16.39 16.92v-14.62h14.62v28.46h-31v-13.85h16.38zm16.92-1.54v-15.38h-16.92v-13.85h47.85v14.15h-18.08v15.08h-12.85zm12.84 2.31v28.46h-12.85V162h12.85zm-15.15 15.38v26.92h-14.62v-13.85h-16.38v-13.08h31zm-16.92 15.39v11.54h-14.08v-11.54h14.08zm0 13.85v6.08c-4.62.69-9.31 1.08-14.08 1.08v-7.15h14.08zm2.31 0h16.92v-13.85h12.85v9.46c-9.15 4.85-19.15 8.31-29.77 10.08v-5.69zm31.69-29.24h16.77v12.15c-5.15 4.38-10.85 8.31-16.77 11.62v-23.77zm16.77-16.15v13.85h-16.77v-28.46h18.08v-16.15h14.08v29l-15.38.23v1.53zm2.3.77l15.38-.23v-31.31h16.46c-3.08 16.62-10.15 31.85-20.23 44.62h-11.62V162zM34.31 177.38h9.92v10.23c-3.54-3.15-6.85-6.61-9.92-10.23zm146.07 10.16v-10.15h9.77c-3.07 3.61-6.3 6.99-9.77 10.15z"/>
  </g>
</svg>
